<?xml version="1.0" encoding="UTF-8" standalone="no"?>
<!-- Created with Inkscape (http://www.inkscape.org/) -->

<svg
   width="48"
   height="48"
   viewBox="0 0 12.7 12.7"
   version="1.1"
   id="svg1"
   sodipodi:docname="icon.svg"
   inkscape:export-filename="icon.png"
   inkscape:export-xdpi="96"
   inkscape:export-ydpi="96"
   inkscape:version="1.4.2 (f4327f4, 2025-05-13)"
   xmlns:inkscape="http://www.inkscape.org/namespaces/inkscape"
   xmlns:sodipodi="http://sodipodi.sourceforge.net/DTD/sodipodi-0.dtd"
   xmlns="http://www.w3.org/2000/svg"
   xmlns:svg="http://www.w3.org/2000/svg">
  <sodipodi:namedview
     id="namedview1"
     pagecolor="#ffffff"
     bordercolor="#000000"
     borderopacity="0.25"
     inkscape:showpageshadow="2"
     inkscape:pageopacity="0.0"
     inkscape:pagecheckerboard="0"
     inkscape:deskcolor="#d1d1d1"
     inkscape:zoom="16.8125"
     inkscape:cx="24"
     inkscape:cy="24"
     inkscape:window-width="1920"
     inkscape:window-height="1009"
     inkscape:window-x="1072"
     inkscape:window-y="376"
     inkscape:window-maximized="1"
     inkscape:current-layer="svg1" />
  <defs
     id="defs1" />
  <g
     id="layer1">
    <path
       style="font-size:70.5556px;font-family:'Caesar Dressing';-inkscape-font-specification:'Caesar Dressing, Normal';fill:#a98467;stroke-width:0.0573474"
       d="m 1.6102996,11.546083 -0.091548,0.05846 c -0.030516,0.01951 -0.061031,0.03898 -0.091546,0.05848 -0.1118923,0.05846 -0.2136126,0.09258 -0.305161,0.102318 -0.091546,0 -0.19326606,0.04873 -0.30515838,0.146172 -0.0406881,-0.04873 -0.0712043,-0.07308 -0.0915486,-0.07308 H 0.61853321 c -0.13223619,0 -0.20852641,-0.03411 -0.2288706,-0.102317 -0.0406881,0.0097 -0.10680556,0.03412 -0.19835212,0.0731 -0.0813763,0.03898 -0.14240847,0.06822 -0.18309657,0.0877 0.0915484,-0.126677 0.15258059,-0.224126 0.18309657,-0.292345 0.030516,-0.06822 0.045774,-0.131554 0.045774,-0.190023 0.0101661,-0.05847 0.0152499,-0.116939 0.0152499,-0.175408 0.010166,-0.06821 0.0355967,-0.16079 0.0762902,-0.277729 0.0203427,-0.03898 0.0356007,-0.07796 0.045774,-0.11694 0.010166,-0.03898 0.0254246,-0.08283 0.045774,-0.131554 0.0508602,-0.146182 0.0915483,-0.311844 0.12206436,-0.496996 0.0406881,-0.185152 0.10171968,-0.3459434 0.18309459,-0.4823713 0,-0.1656633 0.0356021,-0.3215811 0.10680623,-0.4677531 0.0813761,-0.1461702 0.14749421,-0.2972158 0.19835433,-0.453135 0.020343,-0.058466 0.045773,-0.1169356 0.07629,-0.1754082 0.040687,-0.058469 0.071202,-0.1169395 0.091546,-0.1754082 0.040688,-0.097449 0.071204,-0.1900244 0.091549,-0.2777273 0.030516,-0.097452 0.061032,-0.1900276 0.091548,-0.2777297 0.081375,-0.2826021 0.1627506,-0.5603301 0.244127,-0.8331837 0.081376,-0.2826036 0.1576652,-0.5652062 0.2288685,-0.847808 0.010178,-0.04872 0.020346,-0.1023164 0.030518,-0.1607868 0.020342,-0.058471 0.040686,-0.1120681 0.06103,-0.1607904 0.050861,-0.1461749 0.081376,-0.2923468 0.091548,-0.4385191 0.020342,-0.1559173 0.071203,-0.3020912 0.1525801,-0.4385199 -0.010178,-0.068214 -0.010178,-0.1315552 0,-0.1900259 0.020342,-0.058467 0.040686,-0.1218088 0.06103,-0.190024 0.020342,-0.068214 0.040686,-0.1315552 0.061032,-0.1900239 l 0.045774,-0.1315679 c 0.050861,-0.126682 0.086461,-0.2387485 0.1068051,-0.3361975 0.030515,-0.1071929 0.086461,-0.21926 0.1678351,-0.3361993 L 2.6783459,3.506569 C 2.7088639,3.3993761 2.7444679,3.2824383 2.785156,3.1557539 2.825844,3.0290698 2.861446,2.9121311 2.8919611,2.8049376 2.9224761,2.687998 2.9377341,2.6197848 2.9377341,2.6002961 c 0.020342,-0.077959 0.035601,-0.1510462 0.045773,-0.2192596 0.020342,-0.068213 0.040686,-0.1413001 0.061032,-0.2192605 0.020342,-0.04872 0.040686,-0.087699 0.061032,-0.1169356 0.020342,-0.038978 0.040686,-0.08283 0.061032,-0.1315571 0.030515,-0.1071926 0.061032,-0.2387478 0.091548,-0.3946664 0.030517,-0.155918 0.071204,-0.277729 0.1220617,-0.3654336 0.030515,-0.068215 0.086461,-0.1218108 0.1678368,-0.16078873 0.09155,-0.048727 0.1678401,-0.097452 0.2288706,-0.1461748 0.183095,0.019488 0.31533,0.00975 0.3967047,-0.029234 0.09155,-0.038978 0.1780125,-0.087702 0.259387,-0.1461729 0.050861,0.00975 0.096634,0.02437 0.1373201,0.043849 0.050859,0.00975 0.1017178,0.014631 0.1525784,0.014631 0.1932677,0.2046438 0.3255034,0.41415913 0.3967074,0.62854633 0.081374,0.2143872 0.1576657,0.4287742 0.2288708,0.6431612 l 0.091545,0.321581 c 0.030515,0.09745 0.066117,0.1948987 0.106805,0.2923462 0.010178,0.029235 0.02543,0.063341 0.045773,0.1023195 0.020342,0.029235 0.040686,0.063341 0.061032,0.1023195 0.050859,0.077959 0.091547,0.1607905 0.1220617,0.2484952 0.040688,0.087704 0.07629,0.1754063 0.106805,0.2631117 0.061032,0.068215 0.1068051,0.1510459 0.1373201,0.2484936 0.030515,0.087705 0.055944,0.1802814 0.076288,0.2777295 0.030515,0.087705 0.061033,0.1754084 0.091552,0.2631118 0.030515,0.07796 0.076288,0.1461729 0.1373184,0.204642 0.020342,0.107193 0.055944,0.2143859 0.1068051,0.3215805 0.050861,0.09745 0.086463,0.2046436 0.1068067,0.3215809 0.061032,0.077959 0.1322362,0.2290048 0.2136125,0.4531354 0.081374,0.2143872 0.1627495,0.4482642 0.2441287,0.7016314 0.081374,0.2533664 0.1576639,0.4969891 0.2288686,0.7308674 0.071203,0.2338757 0.1220617,0.3995368 0.1525801,0.4969841 0.020342,0.077962 0.06103,0.1802816 0.1220617,0.3069647 0.061028,0.1169393 0.1169728,0.2241323 0.1678334,0.3215804 0.040691,0.1071968 0.081379,0.2192627 0.1220651,0.3361994 0.050859,0.1169395 0.091547,0.2290067 0.1220617,0.3361996 0.020342,0.107193 0.040688,0.2095132 0.061037,0.306962 0.030517,0.09745 0.061032,0.1997727 0.091543,0.3069652 0.020347,0.068211 0.050864,0.1315531 0.091552,0.1900239 0.040686,0.048726 0.071201,0.1120689 0.091545,0.1900244 0.040688,0.077958 0.066117,0.1510455 0.076287,0.2192617 0.020347,0.068212 0.05595,0.1412976 0.1068102,0.2192556 -0.010195,0.107197 -0.0051,0.175412 0.015275,0.204645 0.020344,0.02924 0.040688,0.06335 0.061032,0.102317 0.040688,0.204643 0.086461,0.370306 0.1373201,0.496992 0.050861,0.116938 0.07629,0.24362 0.07629,0.380048 0,0.11694 -0.025429,0.190027 -0.07629,0.219263 -0.040686,0.02923 -0.096631,0.07796 -0.1678317,0.146175 -0.081377,0.06822 -0.1525818,0.121807 -0.2136125,0.160787 -0.050862,0.03898 -0.1322379,0.05847 -0.2441288,0.05847 -0.1220634,-0.0097 -0.198354,0.005 -0.2288707,0.04386 -0.020342,0.04873 -0.035601,0.08284 -0.045773,0.102327 -0.1220667,-0.0097 -0.2034423,-0.0146 -0.2441286,-0.0146 -0.030517,0.0097 -0.066117,0.0146 -0.1068034,0.0146 -0.030517,0 -0.066119,0.005 -0.1068067,0.01464 -0.030512,0.0195 -0.066113,0.0536 -0.1068017,0.102317 -0.071198,-0.07795 -0.1423995,-0.15103 -0.2136052,-0.219245 -0.06103,-0.05847 -0.116974,-0.126684 -0.1678317,-0.204642 0,-0.165663 -0.025431,-0.36056 -0.076293,-0.58469 C 6.6810372,10.883477 6.6352618,10.708066 6.5843994,10.581382 6.4826799,10.328022 6.3860468,10.079528 6.2945001,9.8359059 6.213124,9.5922836 6.131747,9.3437896 6.0503692,9.0904243 6.0198561,8.9832284 5.9842555,8.885779 5.9435675,8.7980762 5.9130505,8.7103725 5.8774505,8.6177948 5.8367625,8.5203457 c 0.020342,0.077962 0.025428,0.1607924 0.015258,0.2484957 0,0.07796 -0.025429,0.1559175 -0.07629,0.2338747 -0.020344,0.019495 -0.050861,0.043857 -0.091548,0.073091 -0.040688,0.029235 -0.061032,0.053594 -0.061032,0.073083 C 5.5010871,9.2463401 5.3942808,9.3389179 5.302733,9.4266196 5.312911,9.6020279 5.287475,9.7238389 5.226443,9.7920549 5.165408,9.8602709 5.0992907,9.9236099 5.0280879,9.9820813 4.8551647,9.9918213 4.7483591,9.9820899 4.707671,9.9528413 4.666983,9.9236003 4.611039,9.9041203 4.5398359,9.8943793 c -0.040688,-0.00974 -0.081376,-0.00974 -0.1220634,0 h -0.122065 c -0.081374,0 -0.1576622,-0.0195 -0.2288684,-0.058463 C 4.0363211,9.8164173 4.0108881,9.7969386 3.9905421,9.7774509 3.9803641,9.7579723 3.9651131,9.7384756 3.9447691,9.7189843 3.8633903,9.6410136 3.7667548,9.5776723 3.6548624,9.5289496 3.5531423,9.4704787 3.4514228,9.4217539 3.349704,9.3827746 3.2683279,9.3145612 3.1818657,9.2463469 3.0903172,9.1781319 3.0089426,9.1001715 2.9224811,9.0368295 2.8309329,8.9881059 2.7495566,9.173261 2.6834392,9.3389245 2.6325806,9.4850967 2.5918926,9.6215236 2.5410326,9.7579515 2.4799998,9.8943805 2.3681075,10.225707 2.27656,10.518052 2.2053573,10.771418 2.1341533,11.01504 2.0527772,11.263535 1.9612287,11.5169 1.9205427,11.5266 1.8798547,11.54128 1.839167,11.56077 1.808652,11.58027 1.767964,11.59 1.7171036,11.59 Z M 3.1055789,8.4325973 C 3.1869559,8.2961689 3.2581607,8.2230835 3.319192,8.2133391 3.390395,8.1938514 3.4514249,8.1548723 3.5022853,8.0963995 c 0.020342,-0.019488 0.040686,-0.043851 0.061032,-0.073091 l 0.09155,-0.087704 c 0.030515,-0.019487 0.066117,-0.038978 0.1068034,-0.058473 0.040688,-0.019487 0.07629,-0.043847 0.106805,-0.073081 0.081377,-0.068214 0.1474946,-0.126682 0.1983514,-0.1754083 0.061033,-0.048724 0.1474963,-0.073086 0.2593869,-0.073086 0.172923,0 0.3153308,0.043853 0.4272234,0.1315571 0.1118906,0.07796 0.2492108,0.1315571 0.4119624,0.1607944 0.020344,0.058466 0.086463,0.1023183 0.1983553,0.1315552 0.1118906,0.019487 0.1983526,0.048722 0.2593843,0.087705 C 5.5214202,7.8235444 5.4400453,7.5799202 5.3790144,7.3362978 5.3281545,7.0829327 5.2620372,6.8344393 5.1806625,6.5908181 5.1196286,6.3764309 5.0484244,6.1669156 4.9670498,5.9622721 4.8856737,5.7478839 4.8042981,5.5432417 4.722923,5.3483454 4.651719,5.1534479 4.5906868,4.9634233 4.5398266,4.7782718 4.4889666,4.5931182 4.4228492,4.4128373 4.3414741,4.2374296 4.2600971,4.4128377 4.1787213,4.6272248 4.0973457,4.8805916 4.0159717,5.1339582 3.95494,5.3580904 3.91425,5.5529877 c 0,0.087704 -0.00508,0.1559173 -0.015258,0.204644 C 3.87865,5.8258457 3.858306,5.8891868 3.83796,5.9476575 3.817618,5.9963775 3.797274,6.049974 3.77693,6.1084425 3.6446988,6.488494 3.5226373,6.8734171 3.4107465,7.263212 3.309027,7.653008 3.1869621,8.0428032 3.0445533,8.432597 Z M 11.563116,0.90468557 c 0.0712,0.12668253 0.106799,0.27285583 0.106799,0.43851963 0,0.1461723 -0.03051,0.3020902 -0.09154,0.4677542 -0.06103,0.1656619 -0.157663,0.2923443 -0.2899,0.3800473 -0.09155,0.1948975 -0.183098,0.3556881 -0.274642,0.4823723 -0.08138,0.1169389 -0.162755,0.2338776 -0.244127,0.3508161 l -0.09155,0.2046417 c -0.03052,0.058469 -0.0712,0.1218109 -0.122064,0.1900241 -0.03051,0.048726 -0.09663,0.1461749 -0.198353,0.2923462 C 10.256016,3.8573799 10.149211,4.0132988 10.037317,4.1789606 9.9355976,4.334878 9.8440506,4.485925 9.7626745,4.6320983 9.6813005,4.7782712 9.6406128,4.8708472 9.6406128,4.9098266 c 0,0.038978 0.045773,0.087703 0.13732,0.1461748 0.1017229,0.058469 0.1678419,0.1023216 0.1983552,0.1315572 0.050859,0.04872 0.096632,0.097444 0.13732,0.1461729 l 0.152587,0.1461747 c 0.111889,0.087704 0.218694,0.1754102 0.320414,0.263114 0.111891,0.087705 0.223783,0.1851508 0.335675,0.292344 0.213614,0.1851528 0.437397,0.3605612 0.671349,0.5262235 0.23396,0.1656637 0.442486,0.3605616 0.625578,0.5846943 0.172923,0.048726 0.284815,0.1656638 0.335675,0.3508135 0.05086,0.1851546 0.06612,0.3605621 0.04577,0.526223 0.02034,0.029238 0.0356,0.058475 0.04577,0.087704 0.02034,0.029237 0.04068,0.063346 0.06103,0.1023218 0,0.1559173 -0.02543,0.2728548 -0.07629,0.3508152 -0.04069,0.068214 -0.08646,0.1559155 -0.13732,0.2631093 -0.05086,0.097449 -0.08646,0.1949006 -0.106804,0.2923484 -0.01019,0.09745 -0.04071,0.1851528 -0.09155,0.2631116 -0.02034,0.029235 -0.05085,0.053595 -0.09154,0.073081 -0.03051,0.019487 -0.05595,0.048722 -0.07629,0.087704 -0.04069,0.068213 -0.07629,0.151044 -0.106805,0.2484941 -0.02034,0.087703 -0.05086,0.1705362 -0.09155,0.2484951 -0.03051,0.07796 -0.0712,0.155916 -0.122056,0.233875 -0.04069,0.07796 -0.07629,0.15592 -0.106807,0.233882 -0.02034,0.04872 -0.04069,0.107189 -0.06103,0.175406 -0.01019,0.06821 -0.05597,0.116938 -0.137325,0.146174 -0.05086,0.175407 -0.122061,0.345941 -0.21361,0.511603 -0.08137,0.165663 -0.147493,0.336201 -0.198355,0.51161 -0.09155,0.02924 -0.208525,0.08283 -0.350933,0.16079 -0.132236,0.0877 -0.239041,0.131556 -0.320417,0.131556 -0.03052,0 -0.05595,-0.01461 -0.07629,-0.04386 -0.02034,-0.02924 -0.05086,-0.0536 -0.09154,-0.07309 -0.02034,-0.0097 -0.05086,-0.0097 -0.09155,0 -0.03052,0.0097 -0.05595,0.01461 -0.07629,0.01461 -0.05086,0 -0.091548,-0.01949 -0.1220668,-0.05846 -0.020337,-0.03897 -0.050852,-0.06821 -0.091542,-0.0877 -0.030518,0.0097 -0.061037,0.01951 -0.091552,0.02924 -0.030515,0.0097 -0.06103,0.01464 -0.091545,0.01464 -0.071203,0 -0.1118906,-0.0195 -0.12206,-0.05847 -0.010195,-0.02924 -0.04071,-0.05846 -0.091545,-0.0877 -0.1220736,-0.05849 -0.1932835,-0.11209 -0.2136291,-0.160815 -0.020342,-0.04873 -0.050857,-0.08283 -0.091545,-0.102317 0.071203,-0.253367 0.1678368,-0.492117 0.2899007,-0.71625 0.1220634,-0.233877 0.2390411,-0.467754 0.3509329,-0.701631 0.030513,-0.07796 0.066114,-0.1510458 0.1068033,-0.2192586 0.050862,-0.068216 0.096635,-0.1413006 0.13732,-0.2192607 0.03052,-0.068213 0.07629,-0.1559158 0.137327,-0.2631099 0.06103,-0.1071932 0.116972,-0.2192589 0.167831,-0.3361996 0.05086,-0.1169394 0.09663,-0.2241322 0.137324,-0.3215808 0.04069,-0.1071929 0.06103,-0.1948966 0.06103,-0.2631091 0,-0.1364285 -0.04069,-0.2387506 -0.122065,-0.3069644 C 10.139039,7.9502093 9.8593076,7.7114604 9.5948303,7.4678392 9.3405339,7.2242182 9.070978,6.9757236 8.7861627,6.7223553 8.6030664,6.5664388 8.4047133,6.405648 8.1911034,6.2399831 8.1504174,6.2107497 8.1198994,6.1668986 8.0995514,6.1084298 8.0792094,6.0499611 8.0486964,5.9963636 8.0080094,5.9476392 7.9876644,5.9086632 7.9571494,5.8794278 7.9164644,5.8599334 7.8757764,5.8404462 7.8452594,5.8112108 7.8249124,5.7722291 7.7943924,5.7332532 7.7740484,5.6894 7.7638794,5.6406721 7.7536844,5.5822032 7.7231694,5.5383541 7.6723364,5.5091205 7.6214794,5.4603944 7.5604458,5.431159 7.4892391,5.4214145 7.4180331,5.4116645 7.3570013,5.382427 7.3061417,5.3337119 c 0.030517,-0.029235 0.045775,-0.058469 0.045775,-0.087705 -0.010195,-0.038978 -0.015292,-0.073084 -0.015292,-0.1023194 0,-0.068214 0.030515,-0.1169376 0.091543,-0.1461748 0.061033,-0.029235 0.09155,-0.082828 0.09155,-0.1607887 C 7.5604037,4.758766 7.5909187,4.7100399 7.6112627,4.6905491 7.7231503,4.427437 7.8502994,4.1740705 7.9927086,3.9304495 8.1351159,3.6868269 8.2826107,3.4432051 8.4351944,3.1995844 8.4860514,3.1216254 8.5318234,3.0485383 8.5725094,2.9803233 L 8.7250861,2.7464468 C 8.7556031,2.6782338 8.7810321,2.6197647 8.8013741,2.5710404 8.8318921,2.5125704 8.8725801,2.4589723 8.9234375,2.4102481 9.0658465,2.2543299 9.1828248,2.1081568 9.2743744,1.9717283 9.3760922,1.8353007 9.4523811,1.6696378 9.5032412,1.4747395 c 0.010178,-0.048723 0.030528,-0.116937 0.061035,-0.2046419 0.030517,-0.087702 0.066117,-0.175406 0.1068034,-0.2631115 0.050859,-0.087703 0.1017195,-0.16566263 0.1525801,-0.23387723 0.050857,-0.068213 0.1068051,-0.1023198 0.1678418,-0.1023198 0.050857,0 0.1220585,0.019489 0.2136045,0.058467 0.101716,0.038978 0.188179,0.068213 0.259387,0.087704 l 0.183097,0.058466 c 0.0712,0.00975 0.137319,0.014631 0.198352,0.014631 0.04069,0 0.08137,-0.00975 0.122063,-0.029234 0.04069,-0.029233 0.08647,-0.043849 0.137325,-0.043849 0.08137,0 0.157663,0.014616 0.228868,0.043849 0.0712,0.019488 0.147495,0.034105 0.228871,0.043848 z"
       id="text1"
       aria-label="AS" />
  </g>
</svg>
