<?xml version="1.0" encoding="UTF-8" standalone="no"?>
<!-- Created with Inkscape (http://www.inkscape.org/) -->

<svg
   width="64.08622mm"
   height="54.088036mm"
   viewBox="0 0 64.08622 54.088036"
   version="1.1"
   id="svg1"
   xmlns="http://www.w3.org/2000/svg"
   xmlns:svg="http://www.w3.org/2000/svg">
  <defs
     id="defs1" />
  <g
     id="layer1"
     transform="translate(-72.631852,-74.470823)">
    <path
       style="font-size:70.5556px;font-family:'Caesar Dressing';-inkscape-font-specification:'Caesar Dressing, Normal';fill:#a98467;stroke-width:0.266759"
       d="m 79.986009,125.73387 q -0.210119,0.13781 -0.420237,0.27561 -0.210119,0.13781 -0.420237,0.27561 -0.770437,0.41341 -1.400793,0.48231 -0.630356,0 -1.400791,0.68902 -0.280159,-0.34451 -0.420238,-0.34451 -0.140079,0 -0.490277,0 -0.910515,0 -1.050594,-0.48231 -0.28016,0.0689 -0.910517,0.34451 -0.560317,0.27561 -0.840473,0.41341 0.630356,-0.89572 0.840473,-1.37804 0.21012,-0.48231 0.21012,-0.89572 0.07003,-0.41341 0.07003,-0.82683 0.07004,-0.48231 0.3502,-1.30913 0.140077,-0.27561 0.210118,-0.55122 0.07004,-0.27561 0.210121,-0.62012 0.350194,-1.03353 0.560313,-2.34266 0.280159,-1.30914 0.840477,-2.27377 0,-1.17133 0.490276,-2.20486 0.560317,-1.03353 0.910516,-2.13596 0.140078,-0.41341 0.350199,-0.82682 0.280157,-0.41342 0.420236,-0.82683 0.280159,-0.68902 0.420238,-1.30913 0.210118,-0.68902 0.420237,-1.30914 0.560318,-1.99816 1.120635,-3.92741 0.560316,-1.99816 1.050593,-3.99632 0.07004,-0.34451 0.140081,-0.757917 0.140076,-0.41341 0.280157,-0.75792 0.350196,-1.03353 0.420237,-2.067059 0.140079,-1.102431 0.700397,-2.067058 -0.07003,-0.482314 0,-0.895726 0.140079,-0.413412 0.280158,-0.895725 0.140078,-0.482314 0.28016,-0.895726 0.140076,-0.413411 0.210118,-0.620117 0.350197,-0.895726 0.490276,-1.584745 0.210118,-0.757922 0.770435,-1.584745 0,0 0.210119,-0.68902 0.210118,-0.757921 0.490279,-1.653647 0.280157,-0.895725 0.490276,-1.653647 0.210118,-0.826823 0.210118,-0.964627 0.14008,-0.551216 0.210118,-1.033529 0.14008,-0.482314 0.280161,-1.03353 0.140076,-0.34451 0.280157,-0.551215 0.14008,-0.275608 0.280159,-0.620118 0.21012,-0.757922 0.420239,-1.860353 0.210117,-1.102431 0.560315,-1.722549 0.210119,-0.482313 0.770435,-0.757921 0.630357,-0.34451 1.050596,-0.68902 1.260712,0.137804 1.821029,-0.137804 0.630352,-0.275608 1.190673,-0.689019 0.3502,0.0689 0.63036,0.206706 0.350197,0.0689 0.700397,0.0689 1.330744,1.446942 1.821028,2.962785 0.56031,1.515843 1.050594,3.031686 0.210112,0.757921 0.420235,1.515843 0.210115,0.689019 0.490274,1.378039 0.07004,0.206706 0.210124,0.482314 0.140075,0.206705 0.28016,0.482313 0.350188,0.551216 0.560312,1.171333 0.280163,0.620118 0.490277,1.240236 0.420242,0.482313 0.630352,1.171333 0.21012,0.620118 0.35019,1.309137 0.21013,0.620118 0.42026,1.240235 0.21011,0.551216 0.63034,0.964628 0.14008,0.757921 0.49028,1.515843 0.3502,0.689019 0.49029,1.515843 0.42024,0.551215 0.98056,2.13596 0.56031,1.515845 1.12064,3.307293 0.56031,1.79145 1.05059,3.4451 0.49027,1.65364 0.7004,2.34266 0.14007,0.55122 0.56031,1.44694 0.42022,0.82683 0.77042,1.51585 0.28017,0.75792 0.56033,1.58474 0.35019,0.82683 0.56031,1.58475 0.14008,0.75792 0.28017,1.44694 0.21012,0.68902 0.42022,1.44694 0.14009,0.48231 0.42026,0.89573 0.28014,0.34451 0.42023,0.89572 0.28016,0.55122 0.35018,1.03353 0.1401,0.48231 0.49029,1.03353 -0.0702,0.75792 0.0701,0.96463 0.14009,0.2067 0.28016,0.48231 0.28016,1.44694 0.63034,2.34267 0.3502,0.82682 0.3502,1.79145 0,0.82682 -0.3502,1.03353 -0.28015,0.2067 -0.77041,0.68902 -0.56032,0.48231 -0.98056,0.75792 -0.35021,0.27561 -1.12064,0.27561 -0.84047,-0.0689 -1.0506,0.2067 -0.14006,0.34451 -0.21011,0.48232 -0.84049,-0.0689 -1.12064,-0.0689 -0.21011,0.0689 -0.49027,0.0689 -0.21013,0 -0.49029,0.0689 -0.2101,0.1378 -0.49026,0.48231 -0.49028,-0.55121 -0.98057,-1.03353 -0.42023,-0.41341 -0.77041,-0.96463 0,-1.17133 -0.35021,-2.75607 -0.28016,-1.58475 -0.63038,-2.48047 -0.70039,-1.79145 -1.33074,-3.514 -0.56032,-1.72255 -1.12065,-3.514 -0.2101,-0.75793 -0.490265,-1.37804 -0.210124,-0.62012 -0.490273,-1.30914 0.140079,0.55122 0.07003,1.17133 0,0.55122 -0.350205,1.10243 -0.140087,0.13781 -0.420237,0.34451 -0.28016,0.20671 -0.28016,0.34451 -0.840483,0.68902 -1.470831,1.30914 0.07003,1.24024 -0.350198,1.72255 -0.420247,0.48231 -0.910519,0.89573 -1.190671,0.0689 -1.470831,-0.13781 -0.280161,-0.2067 -0.770435,-0.27561 -0.280161,-0.0689 -0.560321,0 -0.28016,0 -0.560311,0 -0.560319,0 -1.050597,-0.2756 -0.210118,-0.13781 -0.350198,-0.27561 -0.07003,-0.13781 -0.210117,-0.27561 -0.560317,-0.55122 -1.330752,-0.89572 -0.700397,-0.41342 -1.400793,-0.68902 -0.560317,-0.48232 -1.190674,-0.96463 -0.560317,-0.55122 -1.190672,-0.89573 -0.560317,1.30914 -0.910516,2.34267 -0.280157,0.96463 -0.700395,1.92925 -0.770436,2.34267 -1.260713,4.13412 -0.490278,1.72255 -1.120635,3.514 -0.280157,0.0689 -0.560316,0.20671 -0.210118,0.1378 -0.560316,0.1378 z m 6.863881,-14.67611 q 0.560318,-0.96463 0.980555,-1.03353 0.490276,-0.1378 0.840476,-0.55122 0.140078,-0.1378 0.280158,-0.34451 0.21012,-0.2067 0.420237,-0.41341 0.210119,-0.1378 0.490276,-0.27561 0.280161,-0.1378 0.49028,-0.34451 0.560317,-0.48231 0.910512,-0.82682 0.420239,-0.34451 1.190676,-0.34451 1.19067,0 1.961105,0.62012 0.770433,0.55121 1.891067,0.75792 0.140086,0.41341 0.910521,0.62012 0.770432,0.1378 1.19067,0.41341 -0.700399,-1.72255 -1.120634,-3.4451 -0.350199,-1.79145 -0.910509,-3.514 -0.420247,-1.51584 -0.980559,-2.962777 -0.560318,-1.51585 -1.12063,-2.893884 -0.490285,-1.37804 -0.840484,-2.687177 -0.350196,-1.309137 -0.910507,-2.549372 -0.560318,1.240235 -1.120636,3.031686 -0.560318,1.791451 -0.840474,3.16949 0,0.620117 -0.07003,0.964627 -0.140077,0.48231 -0.280157,0.89573 -0.140079,0.34451 -0.280157,0.757917 -0.910516,2.68717 -1.680951,5.44325 -0.700395,2.75608 -1.680951,5.51216 z m 44.61524,-35.484506 q 0.49025,0.895725 0.49025,2.067059 0,1.033529 -0.42022,2.204862 -0.42022,1.171333 -1.33075,1.791451 -0.63038,1.378039 -1.26071,2.273765 -0.56034,0.826823 -1.12063,1.653647 -0.21012,0.482313 -0.42025,0.964627 -0.21013,0.413412 -0.56032,0.895725 -0.2101,0.34451 -0.91052,1.37804 -0.70038,1.033529 -1.47083,2.204862 -0.70039,1.102431 -1.26071,2.135961 -0.56031,1.033529 -0.56031,1.309137 0,0.275608 0.63035,0.689019 0.70042,0.413412 0.91052,0.620118 0.35019,0.34451 0.63034,0.68902 0.35023,0.344509 0.70042,0.689019 0.77042,0.620117 1.47082,1.240237 0.77043,0.62012 1.54087,1.37804 1.47085,1.309127 3.08174,2.480467 1.61094,1.17133 2.87163,2.75608 1.19067,0.34451 1.54087,1.65364 0.35019,1.30914 0.21013,2.48047 0.14006,0.20671 0.21012,0.41342 0.14008,0.2067 0.28013,0.48231 0,1.10243 -0.35019,1.65365 -0.28014,0.48231 -0.63034,1.24023 -0.3502,0.68902 -0.49027,1.37804 -0.0702,0.68902 -0.42026,1.24024 -0.14005,0.2067 -0.42022,0.34451 -0.21012,0.1378 -0.3502,0.41341 -0.28016,0.48231 -0.49028,1.17133 -0.14009,0.62012 -0.42026,1.17133 -0.21009,0.55122 -0.56029,1.10243 -0.28015,0.55122 -0.49029,1.10244 -0.14009,0.34451 -0.28014,0.82682 -0.0702,0.48231 -0.63037,0.68902 -0.35018,1.24023 -0.98055,2.41157 -0.56031,1.17133 -0.91052,2.41157 -0.63036,0.2067 -1.61091,0.75792 -0.91051,0.62012 -1.47083,0.62012 -0.21014,0 -0.3502,-0.20671 -0.14008,-0.20671 -0.42023,-0.34451 -0.14009,-0.0689 -0.42024,0 -0.21014,0.0689 -0.35019,0.0689 -0.3502,0 -0.56034,-0.27561 -0.14005,-0.2756 -0.42021,-0.41341 -0.21014,0.0689 -0.42026,0.13781 -0.21011,0.0689 -0.42023,0.0689 -0.49028,0 -0.56031,-0.27561 -0.0702,-0.20671 -0.42023,-0.41341 -0.84049,-0.41341 -0.98058,-0.75792 -0.14006,-0.34451 -0.42022,-0.48232 0.49026,-1.79145 1.33075,-3.37619 0.84047,-1.65365 1.61091,-3.3073 0.2101,-0.55121 0.49027,-1.03353 0.35022,-0.48231 0.63035,-1.03353 0.21013,-0.48231 0.63038,-1.24023 0.42022,-0.75792 0.77041,-1.58475 0.3502,-0.82682 0.63037,-1.51584 0.28015,-0.75792 0.28015,-1.24023 0,-0.96463 -0.56032,-1.44694 -2.03112,-1.65365 -3.85219,-3.3762 -1.75097,-1.72255 -3.71208,-3.514 -1.26072,-1.10243 -2.73154,-2.27377 -0.28015,-0.2067 -0.42026,-0.62011 -0.14006,-0.413407 -0.42021,-0.757917 -0.1401,-0.27561 -0.42023,-0.41342 -0.28016,-0.1378 -0.42025,-0.41341 -0.21014,-0.27561 -0.28017,-0.62012 -0.0702,-0.413407 -0.42022,-0.620113 -0.35019,-0.34451 -0.84048,-0.413412 -0.49029,-0.0689 -0.84048,-0.413411 0.21012,-0.206706 0.21012,-0.413412 -0.0702,-0.275608 -0.0702,-0.482314 0,-0.482313 0.42022,-0.689019 0.42024,-0.206706 0.42024,-0.757922 0.28015,-0.551216 0.42023,-0.689019 0.77043,-1.860353 1.751,-3.582902 0.98055,-1.722549 2.03117,-3.445098 0.35018,-0.551216 0.63033,-1.033529 0.35019,-0.551216 0.70039,-1.102432 0.21013,-0.482313 0.35019,-0.826823 0.21014,-0.413412 0.56032,-0.757922 0.98056,-1.102431 1.61093,-2.067058 0.70038,-0.964628 1.05058,-2.342667 0.0701,-0.34451 0.28017,-0.964627 0.21012,-0.620118 0.49027,-1.240235 0.35019,-0.620118 0.7004,-1.102432 0.35018,-0.482313 0.77046,-0.482313 0.35018,0 0.98052,0.275607 0.70038,0.275608 1.19068,0.413412 0.42023,0.137804 0.84048,0.275608 0.49026,0.0689 0.91051,0.0689 0.28016,0 0.56032,-0.137804 0.28018,-0.206706 0.63036,-0.206706 0.56031,0 1.05059,0.206706 0.49028,0.137804 1.0506,0.206706 z"
       id="text1"
       aria-label="AS" />
  </g>
</svg>
